HIERARCHY
ROOT Hips
{
	OFFSET 0.000000 0.000000 0.000000
	CHANNELS 6 Xposition Yposition Zposition Zrotation Yrotation Xrotation 
	JOINT LHipJoint
	{
		OFFSET 0.000000 0.000000 0.000000
		CHANNELS 3 Zrotation Yrotation Xrotation
		JOINT LeftUpLeg
		{
			OFFSET 1.363060 -1.794630 0.839290
			CHANNELS 3 Zrotation Yrotation Xrotation
			JOINT LeftLeg
			{
				OFFSET 2.448110 -6.726130 0.000000
				CHANNELS 3 Zrotation Yrotation Xrotation
				JOINT LeftFoot
				{
					OFFSET 2.562200 -7.039590 0.000000
					CHANNELS 3 Zrotation Yrotation Xrotation
					JOINT LeftToeBase
					{
						OFFSET 0.157640 -0.433110 2.322550
						CHANNELS 3 Zrotation Yrotation Xrotation
						End Site
						{
							OFFSET 0.000000 0.000000 0.000000
						}
					}
				}
			}
		}
	}
	JOINT RHipJoint
	{
		OFFSET 0.000000 0.000000 0.000000
		CHANNELS 3 Zrotation Yrotation Xrotation
		JOINT RightUpLeg
		{
			OFFSET -1.305520 -1.794630 0.839290
			CHANNELS 3 Zrotation Yrotation Xrotation
			JOINT RightLeg
			{
				OFFSET -2.542530 -6.985550 0.000000
				CHANNELS 3 Zrotation Yrotation Xrotation
				JOINT RightFoot
				{
					OFFSET -2.568260 -7.056230 0.000000
					CHANNELS 3 Zrotation Yrotation Xrotation
					JOINT RightToeBase
					{
						OFFSET -0.164730 -0.452590 2.363150
						CHANNELS 3 Zrotation Yrotation Xrotation
						End Site
						{
							OFFSET 0.000000 0.000000 0.000000
						}
					}
				}
			}
		}
	}
	JOINT LowerBack
	{
		OFFSET 0.000000 0.000000 0.000000
		CHANNELS 3 Zrotation Yrotation Xrotation
		JOINT Spine
		{
			OFFSET 0.028270 2.035590 -0.193380
			CHANNELS 3 Zrotation Yrotation Xrotation
			JOINT Spine1
			{
				OFFSET 0.056720 2.048850 -0.042750
				CHANNELS 3 Zrotation Yrotation Xrotation
				JOINT Neck
				{
					OFFSET 0.000000 0.000000 0.000000
					CHANNELS 3 Zrotation Yrotation Xrotation
					JOINT Neck1
					{
						OFFSET -0.054170 1.746240 0.172020
						CHANNELS 3 Zrotation Yrotation Xrotation
						JOINT Head
						{
							OFFSET 0.104070 1.761360 -0.123970
							CHANNELS 3 Zrotation Yrotation Xrotation
							End Site
							{
								OFFSET 0.000000 0.000000 0.000000
							}
						}
					}
				}
				JOINT LeftShoulder
				{
					OFFSET 0.000000 0.000000 0.000000
					CHANNELS 3 Zrotation Yrotation Xrotation
					JOINT LeftArm
					{
						OFFSET 3.362410 1.200890 -0.311210
						CHANNELS 3 Zrotation Yrotation Xrotation
						JOINT LeftForeArm
						{
							OFFSET 4.983000 -0.000000 -0.000000
							CHANNELS 3 Zrotation Yrotation Xrotation
							JOINT LeftHand
							{
								OFFSET 3.483560 -0.000000 -0.000000
								CHANNELS 3 Zrotation Yrotation Xrotation
								JOINT LeftFingerBase
								{
									OFFSET 0.000000 0.000000 0.000000
									CHANNELS 3 Zrotation Yrotation Xrotation
									JOINT LeftHandIndex1
									{
										OFFSET 0.715260 -0.000000 -0.000000
										CHANNELS 3 Zrotation Yrotation Xrotation
										End Site
										{
											OFFSET 0.000000 0.000000 0.000000
										}
									}
								}
								JOINT LThumb
								{
									OFFSET 0.000000 0.000000 0.000000
									CHANNELS 3 Zrotation Yrotation Xrotation
									End Site
									{
										OFFSET 0.000000 0.000000 0.000000
									}
								}
							}
						}
					}
				}
				JOINT RightShoulder
				{
					OFFSET 0.000000 0.000000 0.000000
					CHANNELS 3 Zrotation Yrotation Xrotation
					JOINT RightArm
					{
						OFFSET -3.136600 1.374050 -0.404650
						CHANNELS 3 Zrotation Yrotation Xrotation
						JOINT RightForeArm
						{
							OFFSET -5.241900 -0.000000 -0.000000
							CHANNELS 3 Zrotation Yrotation Xrotation
							JOINT RightHand
							{
								OFFSET -3.444170 -0.000000 -0.000000
								CHANNELS 3 Zrotation Yrotation Xrotation
								JOINT RightFingerBase
								{
									OFFSET 0.000000 0.000000 0.000000
									CHANNELS 3 Zrotation Yrotation Xrotation
									JOINT RightHandIndex1
									{
										OFFSET -0.622530 -0.000000 -0.000000
										CHANNELS 3 Zrotation Yrotation Xrotation
										End Site
										{
											OFFSET 0.000000 0.000000 0.000000
										}
									}
								}
								JOINT RThumb
								{
									OFFSET 0.000000 0.000000 0.000000
									CHANNELS 3 Zrotation Yrotation Xrotation
									End Site
									{
										OFFSET 0.000000 0.000000 0.000000
									}
								}
							}
						}
					}
				}
			}
		}
	}
}
MOTION
Frames: 6
Frame Time: 0.008333
3.832007 17.357118 0.603857 -171.099097 -42.294913 -176.268798 -11.810589 3.165895 -2.580176 -1.913757 41.430367 -12.278033 -3.048308 -0.649154 1.510523 2.608187 19.799253 -1.492576 2.092000 0.000000 -33.350900 8.857684 -1.259709 7.702302 5.548476 16.548721 -17.595902 4.332870 1.309713 -1.434321 2.549321 20.408630 15.089716 6.642300 -0.000000 -69.197000 -2.211483 -6.290604 -9.089604 -1.071393 -6.254295 -4.574171 -7.746361 -6.153313 -1.820183 17.798515 -12.140147 -0.535350 -1.703502 -0.245686 2.019321 0.000000 0.000000 0.000000 14.943987 -14.564188 5.062563 -12.200440 -5.788752 -34.202771 -1.896913 -8.699739 -0.065565 11.569816 -5.015410 -0.566063 -0.263140 0.442109 -0.000000 0.000000 0.000000 0.000000 0.000000 0.000000 0.000000 11.654671 -10.757833 -7.515996 89.864363 56.502334 38.076166 -177.736930 66.077834 179.735973 -23.835136 9.106032 -2.148547 0.476039 -0.862422 -0.000000 0.000000 0.000000 0.000000 0.000000 0.000000 0.000000 
3.831169 17.365141 0.632860 -170.947654 -42.300308 -176.264630 -11.755948 3.193089 -2.709637 -1.988562 41.431710 -12.174474 -3.059961 -0.630664 1.093773 2.599510 19.731557 -1.253434 2.167900 -0.000000 -33.572600 8.952621 -1.134490 7.558743 5.467235 16.604725 -17.723640 4.300970 1.284148 -1.167763 2.533009 20.129587 15.124800 6.543401 -0.000000 -69.144700 -2.502755 -6.658816 -8.715916 -1.100171 -6.574622 -4.475689 -7.688071 -6.483824 -1.790229 18.418133 -12.663739 -0.660806 -1.615655 -0.239335 1.987322 0.000000 0.000000 0.000000 16.682242 -15.668246 4.928682 -10.363448 -5.812358 -35.313842 -1.981215 -4.808127 -0.060075 10.830569 -4.176249 -0.448209 -0.281214 0.426960 0.000000 0.000000 0.000000 0.000000 0.000000 0.000000 0.000000 12.152669 -11.658376 -7.443505 89.221262 56.565885 37.320184 -177.681820 65.849982 179.737429 -23.834076 8.924076 -2.106578 0.472008 -0.852851 -0.000000 0.000000 0.000000 0.000000 0.000000 0.000000 0.000000 
3.827355 17.374541 0.662408 -170.814043 -42.305156 -176.225402 -11.714717 3.220667 -2.842038 -2.095770 41.472041 -12.076394 -3.076253 -0.618681 0.609971 2.582248 19.621117 -0.964960 2.253600 0.000000 -33.786900 9.034725 -1.019058 7.430867 5.359053 16.695096 -17.897205 4.265135 1.254530 -0.880819 2.515981 19.830198 15.174848 6.443400 0.000001 -69.059500 -2.729223 -6.999061 -8.347869 -1.113133 -6.877223 -4.384038 -7.624473 -6.797890 -1.771916 18.943340 -13.159849 -0.822712 -1.522502 -0.231916 1.945856 0.000000 0.000000 0.000000 18.388937 -16.546214 4.775658 -8.750786 -5.810362 -36.938662 -1.995536 -1.748294 -0.056280 10.282519 -3.444738 -0.357432 -0.295699 0.411111 -0.000000 0.000000 0.000000 0.000000 0.000000 0.000000 0.000000 12.511356 -12.505002 -7.381528 88.714990 56.512784 36.630102 -177.618834 65.626816 179.738522 -23.814037 8.815720 -2.079413 0.466732 -0.846073 -0.000000 0.000000 0.000000 0.000000 0.000000 0.000000 0.000000 
3.820221 17.384917 0.691800 -170.704118 -42.297807 -176.152774 -11.689473 3.250476 -2.973522 -2.235618 41.574978 -11.992044 -3.099839 -0.613540 0.070864 2.554427 19.456311 -0.632933 2.343700 0.000000 -33.998200 9.100263 -0.917796 7.327585 5.225876 16.820325 -18.108898 4.227912 1.223573 -0.594151 2.499264 19.523087 15.244681 6.347901 -0.000000 -68.947700 -2.880206 -7.306324 -8.005906 -1.107116 -7.157910 -4.299989 -7.553276 -7.089966 -1.751229 19.354236 -13.621503 -1.019094 -1.423873 -0.223410 1.895512 0.000000 0.000000 0.000000 20.020165 -17.163725 4.622102 -7.302707 -5.865678 -39.196039 -1.928264 0.581585 -0.054346 9.985861 -2.928043 -0.300136 -0.307384 0.398668 0.000000 0.000000 0.000000 0.000000 0.000000 0.000000 0.000000 12.709648 -13.286601 -7.336190 88.355668 56.339329 36.023060 -177.546795 65.413614 179.739335 -23.771316 8.779412 -2.066458 0.460028 -0.841824 -0.000000 0.000000 0.000000 0.000000 0.000000 0.000000 0.000000 
3.809536 17.395788 0.720326 -170.620936 -42.271885 -176.048213 -11.681073 3.284013 -3.100254 -2.408712 41.754439 -11.930667 -3.132755 -0.615134 -0.506570 2.515044 19.229563 -0.267069 2.432001 0.000000 -34.210499 9.147098 -0.834205 7.255856 5.069358 16.979788 -18.350926 4.191492 1.193853 -0.326680 2.483588 19.215517 15.334837 6.259100 0.000000 -68.814800 -2.953290 -7.577168 -7.707959 -1.080805 -7.413055 -4.225131 -7.471923 -7.355546 -1.719444 19.638829 -14.042845 -1.243674 -1.320801 -0.213959 1.838037 0.000000 0.000000 0.000000 21.529923 -17.527737 4.484541 -5.975605 -5.998061 -42.024936 -1.783739 2.231015 -0.054201 9.953093 -2.662786 -0.275222 -0.317888 0.392641 0.000000 0.000000 0.000000 0.000000 0.000000 0.000000 0.000000 12.739049 -13.994042 -7.308997 88.137268 56.048460 35.503535 -177.465450 65.213724 179.739947 -23.702846 8.807797 -2.065516 0.451796 -0.839733 -0.000000 0.000000 0.000000 0.000000 0.000000 0.000000 0.000000 
3.795498 17.406615 0.747397 -170.567280 -42.226794 -175.914085 -11.688360 3.321753 -3.219076 -2.615026 42.012113 -11.901255 -3.175860 -0.622768 -1.101257 2.464514 18.940117 0.119004 2.512501 0.000000 -34.426700 9.174936 -0.770138 7.219237 4.890661 17.171432 -18.614446 4.157331 1.167452 -0.094648 2.469224 18.908640 15.443423 6.176100 -0.000000 -68.674000 -2.953720 -7.809756 -7.465944 -1.034345 -7.639756 -4.160433 -7.376304 -7.591195 -1.670749 19.794111 -14.420783 -1.490027 -1.214916 -0.203748 1.775132 0.000000 0.000000 0.000000 22.888440 -17.653766 4.373390 -4.755528 -6.227679 -45.267022 -1.575531 3.238403 -0.055553 10.130732 -2.650915 -0.279392 -0.328214 0.395083 0.000000 0.000000 0.000000 0.000000 0.000000 0.000000 0.000000 12.603085 -14.622524 -7.299523 88.038215 55.653913 35.063187 -177.374970 65.025986 179.740415 -23.608335 8.888417 -2.073688 0.442063 -0.839328 -0.000000 0.000000 0.000000 0.000000 0.000000 0.000000 0.000000 
